<svg id="Camada_1" data-name="Camada 1" xmlns="http://www.w3.org/2000/svg" viewBox="0 0 1107.69 563.26"><defs><style>.cls-1{fill:#e3e9ee;}.cls-2{fill:#3f93d0;}.cls-3{fill:#5d913b;}.cls-4{fill:#ccd7dd;}.cls-5{fill:#de3045;}.cls-6{fill:#ccd6dd;}.cls-7{fill:#cdd7de;}.cls-8{fill:#ccd5dc;}.cls-9{fill:#cdd5dc;}.cls-10{fill:#e2e8ed;}.cls-11{fill:#e1e8ed;}.cls-12{font-size:500px;fill:#f6f6f6;font-family:FuturaProBookForSIEA, Futura Pro Book For SIEA;}</style></defs><path class="cls-1" d="M0,281.35Q0,177,0,72.56C.05,31.21,30.26.25,71.77.18Q281.38-.19,491,.16c41.49.06,72.09,30.67,72.15,72.16q.3,209.57,0,419.13C563.06,532.19,532.61,563,492,563q-210.39.44-420.77,0C29.89,563,0,531.79,0,490.14Q0,385.74,0,281.35Z"/><path class="cls-2" d="M464.15,399.15q0,15.5.08,31a17.1,17.1,0,0,1,4.45,11.18c.81,25,.72,50.08.06,75.12-.12,4.69-1.4,9.1-5.28,12.29l-98.25.36a15.56,15.56,0,0,1-3.88-7.85c-1.21-28.22.09-56.47-.74-84.7q.6-23.43,0-46.88c.25-27.65.41-55.29.14-82.93,3.76-16.12,2.2-32.06,1-48.48-2.25-30-3.52-60.28,1.11-90.39,1.86-12.13,1.39-24.41-.26-36.68-2.75-20.42,17-37.45,36.65-32l31,0c21.57-3.58,38.8,13.64,34,34q0,15.49,0,31A28.72,28.72,0,0,1,469,180c.2,24,.31,48-.08,72-.09,5.18-1,10.18-4.73,14.21v31c.9,1.86.52-.75.87,1.22C471.16,332,472.72,365.62,464.15,399.15Z"/><path class="cls-3" d="M99.11,430.14q0-15.5,0-31a214.15,214.15,0,0,1,0-102.06v-31c-8.26-13.18-4.61-25.93,3.1-37.27,7.49-11,17.49-18,32.64-14.29,8.8,2.15,18.39,1.25,27.51.28,23.72-2.53,34.59,5.1,39.83,28.89-1.74,86.76,1.5,173.5.77,260.24-.07,8.62,1.41,17.69-5,25.09l-97.84-.42c-4.28-2.9-5.47-7.38-5.6-12.06-.74-25.1-.8-50.19,0-75.29A17.13,17.13,0,0,1,99.11,430.14Z"/><path class="cls-4" d="M399.18,99.16c-25.94,4.19-34.21,13.94-34.35,40.07q-.45,83.94-1,167.88c-.5,18.34-.06,36.68-.22,55-.08,9.05-6.39,18.15.17,27.17a223.43,223.43,0,0,1,.05,47.74q-.53,42.61,0,85.21c.47,2.28.94,4.55,1.4,6.83l-31,0c-2-2.38-3.78-5.06-3.8-8.19-.19-29.51-2.43-59.06,1.16-88.5,3.1-6,9-6.16,14.54-6.51,8.31-.52,11.53-4.76,11.58-12.85s-3.16-12.43-11.54-12.73c-4.57-.16-9.23-.54-13-3.83-4.64-7.95-3.45-16.37-2.08-24.8,12.38-16.77,7.51-34-10.91-44.6-8.84-5.09-15.44,2.95-23.16.87.27-34.42-3.73-30.7,31.43-30.88h3.06c30.76,0,30.76,0,30.31-30.69-8.5-8.88-19.41-4.5-29.19-4.75-27.87-.73-30.82-3.26-30.87-31.15,0-12.82-.45-25.66.19-38.45.72-14.38,5.37-18.88,19.92-20,8.69-.68,17.43-.47,26.14-.35,5.31.07,10.3,0,13.74-4.86.7-33.71.7-33.71-32.29-33.71-32.42,0-32.42,0-32.42-32.3,0-18,.33-36-.13-54-.24-8.95,2.19-13.07,12.05-12.86,25.21.53,50.44.42,75.65,0,8.72-.13,11.37,3.14,11.71,11.7C397.06,63.5,393,81.63,399.18,99.16Z"/><path class="cls-5" d="M330.73,528.91H232.5c-6.48-6.74-5.21-15.32-5.27-23.44-.4-47.91.65-95.82.68-143.72,5.09-24.49,17.55-34,41.24-32.27a210.28,210.28,0,0,0,26.09,0c23.41-1.15,35.72,8.72,39.56,32.16-3,12.58-3.6,25.24-.46,37.83,3.34,13.37-1.42,26.29-1.61,39.43-.36,25,0,50.1-.19,75.14C332.5,519,334.25,524.34,330.73,528.91Z"/><path class="cls-6" d="M198.75,241.58c-6.12-18.59-18.91-27-38.46-25.64-7.12.49-14.31.07-21.46.09-26.72.07-38.43,11.49-39,37.91-.09,4.07-.48,8.13-.72,12.19-17.47,0-34.94-.32-52.4.15-8.88.23-13.08-2.12-12.87-12,.53-25.15.41-50.33,0-75.48-.13-8.49,2.65-12,11.47-11.82,25.68.39,51.37.34,77.05,0,8.07-.09,11.35,3.11,10.65,11-.18,2,0,4.1,0,6.16.15,29.73.15,29.73,30.6,29.09,7.59-5.74,7.52-14.44,7.86-22.5.58-13.73,7.68-19.11,20.74-19,16,.09,31.95-.57,47.9.24,15.57.79,20.58,5.65,21.09,20.65.57,16.47.34,33,.05,49.44-.23,12.49-6.7,19.29-19.18,19.22-12.81-.07-25.75,2-38.39-1.73C196.32,255.15,201.63,247.23,198.75,241.58Z"/><path class="cls-7" d="M215.86,133.11c-11.31,0-22.72-.92-33.91.25-12.4,1.29-17.41-4.79-17.63-15.44-.49-23.12-.5-46.27.12-69.38.26-9.81,5.09-15.19,16.72-14.73,24.13,1,48.33.59,72.5.14,9.17-.17,12.84,2.63,12.64,12.26-.51,25.18-.43,50.39,0,75.57.14,8.87-3.35,11.75-11.84,11.45C241.59,132.77,228.72,133.11,215.86,133.11Z"/><path class="cls-6" d="M133.05,83.73c0,12.85-.27,25.71.1,38.56.24,7.87-2.67,11-10.74,10.92-25.7-.31-51.42-.25-77.13,0-7.44.07-11.5-1.85-11.34-10.31.36-19.53-.32-39.08.25-58.6C34.63,49,48.75,34.74,64,34.27c19.52-.6,39.08.1,58.61-.27,8.33-.16,10.69,3.57,10.49,11.18C132.81,58,133.05,70.88,133.05,83.73Z"/><path class="cls-6" d="M464.17,133.09c-2.13-20.52-14.47-30.83-34-34,0-17.46.32-34.94-.17-52.39-.24-9,2.24-13.12,12.07-12.8,18.48.6,37-.13,55.48.27,16.43.35,30.95,13.95,31.45,30,.62,19.5-.1,39,.27,58.55.16,8.32-3.58,10.6-11.17,10.47C500.14,132.9,482.15,133.09,464.17,133.09Z"/><path class="cls-4" d="M99.13,297.1l0,102.06c-17.08-5.4-34.68-2.8-52-2.79-10,0-13.53-3.15-13.28-13.29.58-24.15.7-48.34-.05-72.49-.35-11.28,4.08-14.07,14.42-13.67C65.16,297.57,82.15,297.1,99.13,297.1Z"/><path class="cls-4" d="M464.2,266.13q0-51-.05-102c16.46,6.31,33.59,2.6,50.35,2.69,11.4.06,15.34,3.21,14.94,14.88-.82,23.61-.76,47.29,0,70.92.34,11.15-3.87,14.18-14.32,13.75C498.16,265.64,481.17,266.14,464.2,266.13Z"/><path class="cls-4" d="M464.15,399.15q0-51,.05-102c17.48,0,35,.34,52.44-.16,9.09-.26,12.92,2.46,12.72,12.18-.52,25.17-.42,50.37,0,75.55.14,8.75-3.21,11.33-11.72,11.66C499.78,397.05,481.66,392.92,464.15,399.15Z"/><path class="cls-6" d="M99.11,430.14q.51,49.26,1,98.51c-11.33.16-22.67.67-34,.4-17.33-.41-31.56-14.12-32-31.19-.45-19.05.16-38.13-.21-57.18C33.77,432.46,37.25,429.9,45,430,63,430.36,81.08,430.14,99.11,430.14Z"/><path class="cls-6" d="M463.46,528.73q.39-49.29.77-98.59c17,0,33.95.49,50.89-.2,10.48-.42,14.82,2.64,14.28,13.78-.81,16.93-.08,33.92-.24,50.88-.2,21-13.72,34.33-34.86,34.5C484,529.18,473.74,528.87,463.46,528.73Z"/><path class="cls-8" d="M198.75,241.58c4.18,4.52,1.59,10.25,2.73,15.3,2.33,3.21,2.15,6.42.06,9.65v30.18a19,19,0,0,1,3.83,10.81c.95,25.72.63,51.46.23,77.18-.11,3.47.33,7-.08,10.41.11,7.18-.38,14.39.14,21.6.46,6.36,4,9.08,10.22,8.84,5.71-.22,8.26-3.41,8.64-8.81.48-6.69,0-13.39.23-20.1,0-3.28-.2-6.55,0-9.82-.05-6-.09-12,.23-17.94,1-4.07.47-9.17,6.58-9.79q.48,84.92.95,169.83l-34.54.15q.4-115.14.81-230.29C198.83,279.72,198.76,260.65,198.75,241.58Z"/><path class="cls-7" d="M201.54,266.53l-.06-9.65c14.41,0,28.83-.15,43.24,0,8.39.1,12.23-3.65,12.16-12.08-.15-19-.1-38.08-.05-57.12,0-7.7-3.69-11.28-11.34-11.26-19.56.06-39.13.38-58.67-.13-12.91-.33-9.82,8.56-10.49,15.82-.82,9,3.44,21.21-12.66,21.08.13-9.25.33-18.5.37-27.75.06-13.51,6.3-21.21,20.25-21.3,21.6-.14,43.2-.32,64.8.09,10.79.2,18,3.71,17.35,17.42-1.11,23.08-.7,46.27-.14,69.4.28,11.44-4.11,15.6-15.41,15.24C234.46,265.79,218,266.4,201.54,266.53Z"/><path class="cls-7" d="M361.8,166.82c1.07,7.69-2.88,9.86-9.87,9.67-10.78-.29-21.57.16-32.35-.12-8.86-.23-13.4,3.1-13.27,12.52q.39,27.72,0,55.44c-.13,9.36,4.28,12.83,13.2,12.59,10.77-.28,21.57.17,32.34-.12,6.95-.19,11,1.88,10,9.59-16.49-.08-33-.63-49.46-.08-11.27.37-15.78-3.7-15.49-15.22.57-22.65,1.07-45.37-.15-68-.82-15,6.56-18.7,19.07-19.06A242.92,242.92,0,0,1,361.8,166.82Z"/><path class="cls-6" d="M231.55,359.09c-3.14,2.38-2.43,5.89-2.67,9.12-10.34,1.6-12.47-5-12.27-13,.54-21.81,15.29-36.61,38.11-38.71,5.86,1.75,7.35,7.89,11.44,11.44h30.91c10.21-9.63,19.76-9.34,30.89-.31,11.46,9.32,16.41,20.43,15.4,34.71-.41,5.75-4.79,5.76-9,5.87-3.06-2.42-.5-6.48-2.68-9.15-9.1-22.5-16.56-27.67-40.11-27.77q-10,0-19.91,0C248.1,331.43,240.65,336.6,231.55,359.09Z"/><path class="cls-7" d="M266.16,328c-6-.19-9-3.32-9.31-9.23-6.68-8.44-16.23-7.49-25.48-8.07-10.05-.63-20.76,2.78-29.89-4.32l.06-9.65c14.73.13,29.45.3,44.18.37,20.36.09,20.36.06,20.42,20.24C266.15,320.87,266.15,324.43,266.16,328Z"/><path class="cls-9" d="M331.68,359.1c3.16,2.38,2.39,5.92,2.68,9.15q0,14,0,28c6.48,11.27,6.43,22.54,0,33.8q-.06,49.54-.13,99.08l-3.51-.21Q331.2,444,331.68,359.1Z"/><path class="cls-6" d="M363.74,389.31c-2.06-3-4.34-5.28-8.24-6.26-4.6-1.15-5.82-6.22-2.35-8.1,14.13-7.65,7.62-20.49,8.84-31.27,1.37-12.14-2-24.54,1.81-36.58A729.65,729.65,0,0,1,363.74,389.31Z"/><path class="cls-6" d="M363.81,522.26a427.17,427.17,0,0,1,0-85.21A826.57,826.57,0,0,1,363.81,522.26Z"/><path class="cls-10" d="M334.37,430l0-33.8c2.58,0,5.15-.1,7.73-.11,18.19,0,26.39,12.54,19.48,29.38-1.82,4.46-5.14,4.48-8.7,4.55C346.73,430.17,340.55,430.06,334.37,430Z"/><path class="cls-6" d="M201.48,306.36c14.18,0,28.35.23,42.52-.06,8.85-.18,13.47,3.24,12.85,12.45-22.14,3.77-32.33,13.41-36.76,34.29-1.69,8,1.53,12.61,8.79,15.17q0,9.3,0,18.61c-9.12,6.09-18.25,6.26-27.37,0Z"/><path class="cls-11" d="M228.82,396.24c.07,6.16-.44,12.4.31,18.49,1.51,12.15-3.09,16.42-15.44,15.73-9.06-.51-13.4-2.7-12.52-12.37.65-7.15.32-14.39.42-21.58C210.6,389.62,219.68,390,228.82,396.24Z"/><path class="cls-7" d="M228.82,396.24q-13.62.12-27.23.27c0-3.23-.07-6.45-.11-9.68h27.38Q228.84,391.53,228.82,396.24Z"/><text class="cls-12" transform="translate(553.9 377.16)">M</text><text class="cls-12" transform="translate(905.3 542.22)">T</text></svg>